# xmcd
#
# Track frame offsets:
#	150
#	12419
#	26126
#	40202
#	50658
#	61895
#	71975
#	84105
#	97869
#	114754
#
# Disc length: 1682 seconds
#
# Revision: 2
# Processed by: cddbd v1.5.1PL2 Copyright (c) Steve Scherf et al.
# Submitted via: audiograbber 1.83.01
#
DISCID=7906900a
DTITLE=Curt och Roland - I Nashville
DYEAR=1900
DGENRE=Country
TTITLE0=Högt på ett berg 2,43
TTITLE1=Var stund jag dig behöver 3,02
TTITLE2=The coming of the Lord 3,07
TTITLE3=Ursäkta mig 2,19
TTITLE4=Vårt liv 2,29
TTITLE5=Det bästa som hänt mig 2,14
TTITLE6=Barn av en modern tid 2,41
TTITLE7=The flowers kissed the shoes that Jesus wore 3,03
TTITLE8=Jag har hört om en stad 3,45
TTITLE9=Kung Jesus 2,32
EXTD=
EXTT0=
EXTT1=
EXTT2=
EXTT3=
EXTT4=
EXTT5=
EXTT6=
EXTT7=
EXTT8=
EXTT9=
PLAYORDER=
